<svg width="328" height="9" viewBox="0 0 328 9" fill="none" xmlns="http://www.w3.org/2000/svg">
<path fill-rule="evenodd" clip-rule="evenodd" d="M-42.009 4.36401C-33.9957 4.72808 -12.9556 4.43096 44.1601 3.60701C133.348 2.31738 204.14 1.77098 223.824 2.24863C225.388 2.29773 100.378 4.74275 87.5333 4.54979C67.509 4.22327 -28.0649 6.21858 -47.2873 7.24201C-52.7517 7.52009 -50.691 8.1697 -47.1252 8.26118C-41.5565 8.41935 -26.619 8.1668 14.337 7.49243C43.1382 7.02809 272.289 4.08663 297.347 4.70112C311.415 5.04567 319.965 5.42585 323.869 5.24459C327.138 5.09735 327.182 4.80477 324.339 4.0455C322.427 3.53956 324.57 3.1906 325.934 3.0238C328.03 2.74854 327.139 1.93511 324.492 1.31876C320.915 0.473399 314.765 0.591691 317.707 1.44675C318.345 1.63161 318.499 2.11575 316.252 2.05278C309.706 1.86089 263.447 0.573 250.896 0.424204C116.888 -1.22582 -13.8004 3.47087 -41.4929 2.99393C-51.3101 2.80337 -46.7974 4.14527 -42.009 4.36401Z" fill="#E0F780"/>
</svg>
