<svg width="253" height="12" viewBox="0 0 253 12" fill="none" xmlns="http://www.w3.org/2000/svg">
<path fill-rule="evenodd" clip-rule="evenodd" d="M5.81591 2.13921C11.1781 2.84173 25.2703 2.87687 63.5252 2.94712C123.262 3.0525 170.671 3.82527 183.848 4.94931C184.894 5.05469 101.159 5.82747 92.5597 5.26545C79.1541 4.35216 15.1344 5.12494 2.25196 6.17874C-1.41004 6.45975 -0.0367723 7.44329 2.35007 7.65405C6.07745 8.00531 16.0826 7.97018 43.515 7.89992C62.8059 7.8648 216.283 8.67271 233.056 10.1129C242.473 10.9208 248.195 11.6584 250.81 11.4828C253.001 11.3423 253.034 10.9208 251.137 9.76163C249.862 8.98885 251.301 8.5322 252.216 8.32144C253.622 7.97018 253.034 6.77588 251.268 5.82747C248.881 4.5278 244.762 4.56293 246.723 5.8626C247.148 6.14361 247.246 6.84614 245.742 6.70563C241.361 6.28411 210.398 3.40376 201.995 2.91199C112.276 -2.42721 24.7144 1.4718 6.17554 0.172129C-0.396448 -0.31964 2.61167 1.71769 5.81591 2.13921Z" fill="#E0F780"/>
</svg>
