<svg width="265" height="13" viewBox="0 0 265 13" fill="none" xmlns="http://www.w3.org/2000/svg">
<path fill-rule="evenodd" clip-rule="evenodd" d="M6.09176 2.41635C11.7083 3.2099 26.4689 3.24958 66.5383 3.32893C129.108 3.44797 178.767 4.32086 192.568 5.59052C193.664 5.70956 105.957 6.58245 96.9499 5.94762C82.9085 4.91601 15.8522 5.78891 2.35878 6.97922C-1.47692 7.29664 -0.0385163 8.40761 2.46153 8.64567C6.36571 9.04244 16.8454 9.00276 45.579 8.9234C65.7849 8.88373 226.541 9.79631 244.11 11.4231C253.974 12.3356 259.967 13.1689 262.707 12.9705C265.001 12.8118 265.035 12.3356 263.049 11.0263C261.713 10.1534 263.22 9.6376 264.179 9.39953C265.652 9.00276 265.035 7.65374 263.186 6.58245C260.686 5.1144 256.371 5.15408 258.426 6.62213C258.871 6.93955 258.974 7.73309 257.398 7.57438C252.809 7.09826 220.377 3.84473 211.575 3.28925C117.601 -2.74167 25.8866 1.66248 6.46845 0.194429C-0.415252 -0.361051 2.73554 1.94023 6.09176 2.41635Z" fill="#0022EC"/>
</svg>
